<svg width="85" height="85" viewBox="0 0 85 85" fill="none" xmlns="http://www.w3.org/2000/svg">
<circle cx="42.5" cy="42.5" r="42.5" fill="white"/>
<path d="M43.5752 41.384C46.0472 41.624 47.9312 42.392 49.2272 43.688C50.5232 44.96 51.1712 46.592 51.1712 48.584C51.1712 50.024 50.8112 51.332 50.0912 52.508C49.3712 53.66 48.2912 54.584 46.8512 55.28C45.4352 55.952 43.6952 56.288 41.6312 56.288C39.8312 56.288 38.1032 56.024 36.4472 55.496C34.7912 54.944 33.4352 54.188 32.3792 53.228L34.0352 50.384C34.8992 51.2 36.0032 51.86 37.3472 52.364C38.6912 52.844 40.1192 53.084 41.6312 53.084C43.5032 53.084 44.9552 52.688 45.9872 51.896C47.0432 51.104 47.5712 50.012 47.5712 48.62C47.5712 47.228 47.0552 46.148 46.0232 45.38C44.9912 44.612 43.4312 44.228 41.3432 44.228H39.3272V41.708L45.6632 33.932H33.5312V30.8H50.1632V33.248L43.5752 41.384Z" fill="#194DD2"/>
</svg>
